<svg width="23" height="22" viewBox="0 0 23 22" fill="none" xmlns="http://www.w3.org/2000/svg">
<path d="M16.0667 12.7901C15.8668 12.9838 15.775 13.264 15.8205 13.5388L16.5067 17.3365C16.5646 17.6583 16.4287 17.9841 16.1594 18.1701C15.8954 18.3631 15.5442 18.3862 15.2563 18.2318L11.8376 16.4488C11.7187 16.3855 11.5868 16.3516 11.4517 16.3477H11.2425C11.1699 16.3585 11.0989 16.3817 11.0341 16.4172L7.61466 18.2087C7.44562 18.2936 7.2542 18.3237 7.06663 18.2936C6.60968 18.2071 6.30479 17.7718 6.37966 17.3125L7.06663 13.5149C7.11217 13.2378 7.02032 12.9561 6.8204 12.7592L4.03315 10.0577C3.80004 9.83149 3.71899 9.49187 3.82551 9.18543C3.92895 8.87977 4.19293 8.6567 4.51171 8.60653L8.34795 8.05C8.63972 8.0199 8.89598 7.84237 9.0272 7.57993L10.7176 4.11419C10.7578 4.03701 10.8095 3.96599 10.872 3.90579L10.9415 3.85175C10.9777 3.81162 11.0194 3.77843 11.0657 3.75141L11.1499 3.72054L11.2811 3.6665H11.606C11.8963 3.69661 12.1518 3.87028 12.2853 4.12963L13.9981 7.57993C14.1216 7.83233 14.3617 8.00755 14.6388 8.05L18.475 8.60653C18.7992 8.65284 19.0701 8.87668 19.1774 9.18543C19.2785 9.49496 19.1913 9.83458 18.9536 10.0577L16.0667 12.7901Z" fill="#1D222B"/>
</svg>
