<svg width="22" height="22" viewBox="0 0 22 22" fill="none" xmlns="http://www.w3.org/2000/svg">
<path d="M18.1934 4.32091L17.6624 2.59663C17.5194 2.13137 17.217 1.72203 16.801 1.4306C16.3851 1.13916 15.8782 0.981487 15.3571 0.981445H6.64438C6.1233 0.981487 5.61643 1.13916 5.20048 1.4306C4.78453 1.72203 4.48215 2.13137 4.33912 2.59663L3.80806 4.32091M18.6933 7.66038L17.2452 19.0524C17.1762 19.5941 16.8956 20.0934 16.4566 20.4557C16.0176 20.818 15.4506 21.0182 14.8632 21.0182H7.13828C6.55103 21.0182 5.98424 20.818 5.5454 20.4556C5.10656 20.0933 4.8262 19.594 4.75749 19.0524L3.30817 7.66038" stroke="#0051FF" stroke-width="1.5" stroke-linecap="round" stroke-linejoin="round"/>
<path fill-rule="evenodd" clip-rule="evenodd" d="M12.6958 12.7652C12.9248 12.9706 13.1075 13.2162 13.2331 13.4878C13.3588 13.7595 13.4249 14.0516 13.4277 14.3472C13.4304 14.6428 13.3698 14.936 13.2492 15.2096C13.1287 15.4832 12.9506 15.7318 12.7255 15.9408C12.5004 16.1498 12.2327 16.3151 11.9381 16.4271C11.6434 16.539 11.3277 16.5954 11.0094 16.5928C10.691 16.5902 10.3764 16.5288 10.0839 16.4121C9.79139 16.2954 9.52683 16.1258 9.30566 15.9132C8.86892 15.4933 8.62726 14.9309 8.63272 14.3472C8.63819 13.7635 8.89034 13.2051 9.33486 12.7923C9.77939 12.3795 10.3807 12.1454 11.0094 12.1403C11.638 12.1353 12.2436 12.3597 12.6958 12.7652ZM3.00965 4.3208H18.9918C19.2435 4.32074 19.4889 4.39426 19.693 4.53092C19.8972 4.66758 20.0499 4.86045 20.1295 5.0822L20.5287 6.19535C20.5887 6.36279 20.605 6.54108 20.5763 6.71552C20.5475 6.88997 20.4745 7.05557 20.3633 7.19865C20.2521 7.34174 20.1058 7.45822 19.9365 7.53848C19.7673 7.61874 19.5799 7.66049 19.3898 7.66027H2.61166C2.42159 7.66035 2.23421 7.61855 2.06492 7.53829C1.89563 7.45804 1.74927 7.34163 1.63787 7.19863C1.52646 7.05563 1.45319 6.89012 1.42408 6.71571C1.39497 6.5413 1.41085 6.36296 1.47042 6.19535L1.87081 5.0822C2.03624 4.62692 2.49418 4.3208 3.00965 4.3208Z" stroke="#0051FF" stroke-width="1.5" stroke-linecap="round" stroke-linejoin="round"/>
</svg>
