<svg width="66" height="8" viewBox="0 0 66 8" fill="none" xmlns="http://www.w3.org/2000/svg">
<path d="M0.0234375 7.22131V0.514008H2.00301C2.59534 0.514008 3.12016 0.646066 3.57746 0.910181C4.03782 1.1743 4.39384 1.54897 4.6455 2.03421C4.89717 2.51944 5.023 3.07531 5.023 3.70182V4.0381C5.023 4.67382 4.89564 5.23276 4.6409 5.71493C4.38923 6.19709 4.02861 6.5687 3.55904 6.82974C3.09254 7.09078 2.55698 7.22131 1.95237 7.22131H0.0234375ZM1.18816 1.45377V6.29076H1.94776C2.55852 6.29076 3.02655 6.10035 3.35188 5.71953C3.68027 5.33565 3.84754 4.78592 3.85368 4.07035V3.69721C3.85368 2.96936 3.69562 2.41349 3.3795 2.0296C3.06338 1.64571 2.60455 1.45377 2.00301 1.45377H1.18816Z" fill="white"/>
<path d="M7.4123 7.22131H6.25218V0.514008H7.4123V7.22131Z" fill="white"/>
<path d="M12.3474 5.49381C12.3474 5.19898 12.2431 4.97172 12.0344 4.81202C11.8287 4.65233 11.4558 4.49109 10.9157 4.32832C10.3755 4.16555 9.94584 3.98436 9.62666 3.78474C9.0159 3.40085 8.71053 2.90026 8.71053 2.28297C8.71053 1.74245 8.92997 1.29714 9.36885 0.947034C9.8108 0.596928 10.3832 0.421875 11.086 0.421875C11.5525 0.421875 11.9684 0.507866 12.3336 0.679848C12.6988 0.85183 12.9858 1.09752 13.1945 1.41691C13.4032 1.73324 13.5075 2.08488 13.5075 2.47184H12.3474C12.3474 2.12173 12.2369 1.8484 12.016 1.65185C11.798 1.45223 11.485 1.35242 11.0768 1.35242C10.6962 1.35242 10.4001 1.4338 10.1883 1.59657C9.9796 1.75934 9.87525 1.9866 9.87525 2.27836C9.87525 2.52405 9.98881 2.72981 10.2159 2.89565C10.443 3.05842 10.8175 3.21812 11.3392 3.37474C11.861 3.5283 12.2799 3.70489 12.596 3.90451C12.9121 4.10106 13.1438 4.32832 13.2912 4.5863C13.4385 4.8412 13.5121 5.14063 13.5121 5.4846C13.5121 6.04354 13.2973 6.48885 12.8676 6.82053C12.441 7.14914 11.861 7.31344 11.1274 7.31344C10.6425 7.31344 10.196 7.22438 9.78778 7.04625C9.38266 6.86506 9.06654 6.6163 8.83943 6.29997C8.61539 5.98365 8.50337 5.61512 8.50337 5.19438H9.66809C9.66809 5.57519 9.79392 5.87002 10.0456 6.07885C10.2973 6.28769 10.6579 6.39211 11.1274 6.39211C11.5326 6.39211 11.8364 6.31072 12.039 6.14795C12.2446 5.98211 12.3474 5.76407 12.3474 5.49381Z" fill="white"/>
<path d="M15.6989 4.7291V7.22131H14.5341V0.514008H17.0984C17.8472 0.514008 18.4411 0.709024 18.88 1.09905C19.3219 1.48908 19.5429 2.00503 19.5429 2.64689C19.5429 3.30411 19.3266 3.81545 18.8938 4.18091C18.4641 4.54637 17.8611 4.7291 17.0846 4.7291H15.6989ZM15.6989 3.79395H17.0984C17.5127 3.79395 17.8288 3.69721 18.0467 3.50373C18.2646 3.30718 18.3736 3.02464 18.3736 2.65611C18.3736 2.29371 18.2631 2.00503 18.0421 1.79005C17.8212 1.572 17.5173 1.45991 17.1306 1.45377H15.6989V3.79395Z" fill="white"/>
<path d="M25.9144 4.04271C25.9144 4.69993 25.8008 5.2773 25.5737 5.77481C25.3466 6.26926 25.0213 6.65008 24.5977 6.91727C24.1773 7.18138 23.6923 7.31344 23.143 7.31344C22.5997 7.31344 22.1148 7.18138 21.6882 6.91727C21.2647 6.65008 20.9363 6.2708 20.703 5.77942C20.4729 5.28804 20.3562 4.72143 20.3532 4.07956V3.70182C20.3532 3.04767 20.4683 2.4703 20.6984 1.96971C20.9317 1.46912 21.2586 1.08677 21.679 0.822654C22.1026 0.555468 22.5875 0.421875 23.1338 0.421875C23.6801 0.421875 24.1635 0.553933 24.5839 0.818048C25.0075 1.07909 25.3343 1.45684 25.5645 1.95129C25.7947 2.44266 25.9113 3.01542 25.9144 3.66957V4.04271ZM24.7497 3.6926C24.7497 2.9494 24.6085 2.37971 24.3261 1.98353C24.0468 1.58736 23.6494 1.38927 23.1338 1.38927C22.6304 1.38927 22.2361 1.58736 21.9506 1.98353C21.6683 2.37663 21.524 2.93404 21.5179 3.65575V4.04271C21.5179 4.77978 21.6606 5.34947 21.946 5.75178C22.2345 6.1541 22.6335 6.35525 23.143 6.35525C23.6586 6.35525 24.0545 6.1587 24.3307 5.7656C24.61 5.3725 24.7497 4.7982 24.7497 4.04271V3.6926Z" fill="white"/>
<path d="M32.3917 7.22131H31.227L28.2392 2.46263V7.22131H27.0745V0.514008H28.2392L31.2362 5.29112V0.514008H32.3917V7.22131Z" fill="white"/>
<path d="M34.9974 7.22131H33.8373V0.514008H34.9974V7.22131Z" fill="white"/>
<path d="M36.4291 7.22131V0.514008H38.7263C39.4844 0.514008 40.0614 0.666028 40.4573 0.970068C40.8532 1.27411 41.0512 1.7271 41.0512 2.32903C41.0512 2.63614 40.9683 2.91254 40.8026 3.15823C40.6369 3.40392 40.3944 3.59433 40.0752 3.72946C40.4374 3.82773 40.7167 4.01353 40.9131 4.28686C41.1126 4.55712 41.2123 4.88266 41.2123 5.26348C41.2123 5.89305 41.0098 6.37675 40.6046 6.71457C40.2026 7.0524 39.6256 7.22131 38.8737 7.22131H36.4291ZM37.5938 4.19473V6.29076H38.8875C39.2527 6.29076 39.5381 6.20016 39.7437 6.01897C39.9494 5.83777 40.0522 5.58594 40.0522 5.26348C40.0522 4.56633 39.6962 4.21009 38.9841 4.19473H37.5938ZM37.5938 3.33789H38.7355C39.0977 3.33789 39.3801 3.25651 39.5826 3.09374C39.7882 2.9279 39.8911 2.69449 39.8911 2.39353C39.8911 2.06185 39.7959 1.8223 39.6056 1.67489C39.4184 1.52747 39.1253 1.45377 38.7263 1.45377H37.5938V3.33789Z" fill="white"/>
<path d="M43.5418 6.29076H46.5848V7.22131H42.377V0.514008H43.5418V6.29076Z" fill="white"/>
<path d="M51.3956 4.22698H48.6426V6.29076H51.8606V7.22131H47.4779V0.514008H51.8283V1.45377H48.6426V3.30564H51.3956V4.22698Z" fill="white"/>
<path d="M59.0745 4.22698H56.3215V6.29076H59.5395V7.22131H55.1568V0.514008H59.5072V1.45377H56.3215V3.30564H59.0745V4.22698Z" fill="white"/>
<path d="M65.805 7.22131H64.6403L61.6525 2.46263V7.22131H60.4878V0.514008H61.6525L64.6495 5.29112V0.514008H65.805V7.22131Z" fill="white"/>
</svg>
