<svg width="24" height="24" viewBox="0 0 24 24" fill="none" xmlns="http://www.w3.org/2000/svg">
<path d="M2 12.0602C2.00116 17.0099 5.57828 21.2243 10.4367 22V14.968H7.89979V12.0602H10.4397V9.84664C10.3262 8.79776 10.6822 7.75242 11.4113 6.99411C12.1404 6.23581 13.167 5.84315 14.2126 5.92263C14.9631 5.93482 15.7117 6.00208 16.4525 6.12386V8.598H15.1885C14.7534 8.54065 14.3159 8.68525 13.9994 8.99107C13.6828 9.29688 13.5214 9.73081 13.5606 10.1706V12.0602H16.3315L15.8885 14.969H13.5606V22C18.8149 21.1645 22.4994 16.3361 21.9448 11.0128C21.3902 5.68957 16.7908 1.73493 11.4785 2.01389C6.16622 2.29285 2.00084 6.70774 2 12.0602Z" fill="#333B48"/>
</svg>
