<svg width="95" height="20" viewBox="0 0 95 20" fill="none" xmlns="http://www.w3.org/2000/svg">
<path d="M30.8653 5.97971C28.2058 5.97971 26.1003 7.95902 26.1003 10.7081C26.1003 13.3471 28.2058 15.4364 30.8653 15.4364C33.5249 15.4364 35.6303 13.4571 35.6303 10.7081C35.6303 7.84906 33.5249 5.97971 30.8653 5.97971ZM30.8653 13.4571C29.4247 13.4571 28.2058 12.2475 28.2058 10.5981C28.2058 8.94868 29.4247 7.7391 30.8653 7.7391C32.3059 7.7391 33.5249 8.83871 33.5249 10.5981C33.5249 12.2475 32.3059 13.4571 30.8653 13.4571ZM20.5595 5.97971C17.9 5.97971 15.7945 7.95902 15.7945 10.7081C15.7945 13.3471 17.9 15.4364 20.5595 15.4364C23.2191 15.4364 25.3246 13.4571 25.3246 10.7081C25.3246 7.84906 23.2191 5.97971 20.5595 5.97971ZM20.5595 13.4571C19.1189 13.4571 17.9 12.2475 17.9 10.5981C17.9 8.94868 19.1189 7.7391 20.5595 7.7391C22.0001 7.7391 23.2191 8.83871 23.2191 10.5981C23.2191 12.2475 22.0001 13.4571 20.5595 13.4571ZM8.25909 7.40921V9.38852H13.0241C12.9133 10.4881 12.4701 11.3678 11.916 11.9176C11.2511 12.5774 10.1429 13.3471 8.25909 13.3471C5.26709 13.3471 3.0508 11.0379 3.0508 8.06898C3.0508 5.10002 5.37791 2.79083 8.25909 2.79083C9.8105 2.79083 11.0295 3.4506 11.916 4.22033L13.3566 2.79083C12.1376 1.69121 10.5862 0.811523 8.3699 0.811523C4.38057 0.811523 0.945312 4.11037 0.945312 8.06898C0.945312 12.0276 4.38057 15.3264 8.3699 15.3264C10.5862 15.3264 12.1376 14.6667 13.4674 13.2372C14.7972 11.9176 15.2404 10.0483 15.2404 8.61879C15.2404 8.17895 15.2404 7.7391 15.1296 7.40921H8.25909ZM58.569 8.94868C58.1257 7.84906 57.0176 5.97971 54.5797 5.97971C52.1418 5.97971 50.1471 7.84906 50.1471 10.7081C50.1471 13.3471 52.1417 15.4364 54.8013 15.4364C56.9068 15.4364 58.2366 14.1169 58.6798 13.3471L57.1284 12.2475C56.5743 13.0173 55.9095 13.5671 54.8013 13.5671C53.6932 13.5671 53.0283 13.1272 52.4742 12.1376L58.7906 9.49848L58.569 8.94868ZM52.1418 10.4881C52.1418 8.72875 53.5823 7.7391 54.5797 7.7391C55.3554 7.7391 56.1311 8.17894 56.3527 8.72875L52.1418 10.4881ZM46.9335 14.9966H49.0389V1.25137H46.9335V14.9966ZM43.609 6.96937C43.0549 6.41956 42.1684 5.86975 41.0603 5.86975C38.7332 5.86975 36.5169 7.95902 36.5169 10.5981C36.5169 13.2372 38.6223 15.2165 41.0603 15.2165C42.1684 15.2165 43.0549 14.6667 43.4982 14.1169H43.609V14.7766C43.609 16.536 42.6117 17.5257 41.0603 17.5257C39.8413 17.5257 38.9548 16.646 38.7332 15.8763L36.9601 16.646C37.5142 17.8556 38.844 19.395 41.1711 19.395C43.609 19.395 45.6037 17.9655 45.6037 14.5567V6.19964H43.609V6.96937ZM41.1711 13.4571C39.7305 13.4571 38.5115 12.2475 38.5115 10.5981C38.5115 8.94868 39.7305 7.7391 41.1711 7.7391C42.6117 7.7391 43.7198 8.94868 43.7198 10.5981C43.7198 12.2475 42.6117 13.4571 41.1711 13.4571ZM68.2099 1.25137H63.2232V14.9966H65.3287V9.82837H68.2099C70.537 9.82837 72.7533 8.17894 72.7533 5.53987C72.7533 2.90079 70.537 1.25137 68.2099 1.25137ZM68.3207 7.84906H65.3287V3.12072H68.3207C69.8721 3.12072 70.7586 4.44025 70.7586 5.42991C70.6478 6.63948 69.7613 7.84906 68.3207 7.84906ZM81.0644 5.86975C79.513 5.86975 77.9616 6.52952 77.4075 7.95902L79.2914 8.72875C79.7346 7.95902 80.3995 7.7391 81.1752 7.7391C82.2834 7.7391 83.2807 8.39887 83.3915 9.49848V9.60845C83.0591 9.38852 82.1726 9.05864 81.286 9.05864C79.2914 9.05864 77.2967 10.1583 77.2967 12.1376C77.2967 14.0069 78.9589 15.2165 80.732 15.2165C82.1726 15.2165 82.8374 14.5567 83.3915 13.8969H83.5023V14.9966H85.497V9.71841C85.2754 7.29925 83.3915 5.86975 81.0644 5.86975ZM80.8428 13.4571C80.1779 13.4571 79.1806 13.1272 79.1806 12.2475C79.1806 11.1479 80.3995 10.818 81.3969 10.818C82.2834 10.818 82.7266 11.0379 83.2807 11.2579C83.0591 12.5774 81.9509 13.4571 80.8428 13.4571ZM92.4783 6.19964L90.1512 12.1376H90.0404L87.6025 6.19964H85.3862L89.0431 14.5567L86.9376 19.1751H89.0431L94.6946 6.19964H92.4783ZM73.8615 14.9966H75.9669V1.25137H73.8615V14.9966Z" fill="white"/>
</svg>
