<svg width="30" height="30" viewBox="0 0 30 30" fill="none" xmlns="http://www.w3.org/2000/svg">
<g clip-path="url(#clip0_16692_20732)">
<path d="M14.7746 14.4004L3.22461 26.4754C3.59961 27.7504 4.79961 28.7254 6.22461 28.7254C6.82461 28.7254 7.34961 28.5754 7.79961 28.2754L20.8496 20.8504L14.7746 14.4004Z" fill="#EA4335"/>
<path d="M26.4758 12.3002L20.8508 9.0752L14.5508 14.6252L20.9258 20.8502L26.5508 17.7002C27.5258 17.1752 28.2008 16.1252 28.2008 15.0002C28.1258 13.8752 27.4508 12.8252 26.4758 12.3002Z" fill="#FBBC04"/>
<path d="M3.22539 3.52539C3.15039 3.75039 3.15039 4.05039 3.15039 4.35039V25.7254C3.15039 26.0254 3.15039 26.2504 3.22539 26.5504L15.2254 14.7754L3.22539 3.52539Z" fill="#4285F4"/>
<path d="M14.8496 15.0004L20.8496 9.07539L7.87461 1.72539C7.42461 1.42539 6.82461 1.27539 6.22461 1.27539C4.79961 1.27539 3.52461 2.25039 3.22461 3.52539L14.8496 15.0004Z" fill="#34A853"/>
</g>
<defs>
<clipPath id="clip0_16692_20732">
<rect width="30" height="30" fill="white"/>
</clipPath>
</defs>
</svg>
