<svg width="97" height="93" viewBox="0 0 97 93" fill="none" xmlns="http://www.w3.org/2000/svg">
<path fill-rule="evenodd" clip-rule="evenodd" d="M20.5422 74.7981L19.0382 82.7588L36.4688 87.9234C37.2386 83.2955 40.4032 75.2746 42.9723 69.567L50.5168 70.5882C52.6145 70.8721 54.5702 69.4725 54.9783 67.3954L64.3925 19.4722C64.8324 17.2331 63.313 15.0803 61.0559 14.7447L40.4077 11.6739C38.2923 11.3593 36.3037 12.7643 35.8936 14.8632L32.6973 31.2202C32.3805 31.1425 32.0347 31.1924 31.6691 31.4067C31.3866 31.5723 31.1814 31.8319 30.9984 32.1034C29.9699 33.6291 26.2879 39.1652 24.0721 43.4631C18.225 54.8044 20.0218 69.0552 20.6483 72.8655C20.7548 73.5131 20.7267 74.1684 20.5422 74.7981Z" fill="white"/>
<path d="M36.4688 87.9234L19.0382 82.7588L18.2669 85.5374C18.1193 86.0692 18.4299 86.6202 18.9608 86.7708C19.5793 86.9463 20.4608 87.1982 21.4999 87.5003L30.9999 90.0003C33.1202 90.6168 35.4995 91 35.4995 91L36.4688 87.9234Z" fill="white"/>
<path d="M19.0382 82.7588L36.4688 87.9234M19.0382 82.7588L20.5422 74.7981M19.0382 82.7588L18.2669 85.5374C18.1193 86.0692 18.4299 86.6202 18.9608 86.7709C19.5793 86.9463 20.4608 87.1982 21.4999 87.5003L30.9999 90.0003C33.1202 90.6168 35.4995 91 35.4995 91L36.4688 87.9234M27.9036 69.3536C28.3174 68.7741 28.6838 68.2159 29.0072 67.6769M36.4688 87.9234C37.2386 83.2955 40.4032 75.2746 42.9723 69.567M29.0072 67.6769C33.6843 59.8819 29.366 56.1034 29.394 49.8017C29.4036 47.632 30.3199 44.5482 30.6343 43.5528C30.7029 43.3359 30.7926 43.1303 30.9021 42.9309C31.3393 42.1339 32.5943 39.8719 33.9209 37.7185C35.2305 35.5925 34.3684 31.6301 32.6973 31.2202M29.0072 67.6769L42.9723 69.567M29.0072 67.6769L50.5168 70.5882M42.9723 69.567L50.5168 70.5882M32.6973 31.2202C32.3805 31.1425 32.0347 31.1924 31.6691 31.4067M32.6973 31.2202L35.8936 14.8632M20.5422 74.7981C20.7267 74.1684 20.7548 73.5131 20.6483 72.8655M20.5422 74.7981L20.5452 74.7882C20.7277 74.165 20.7537 73.5063 20.6483 72.8655V72.8655M20.6483 72.8655C20.0218 69.0552 18.225 54.8044 24.0721 43.4631C26.2879 39.1652 29.9699 33.6291 30.9984 32.1034M30.9984 32.1034C31.1814 31.8319 31.3866 31.5723 31.6691 31.4067M30.9984 32.1034V32.1034C31.1798 31.8342 31.389 31.5709 31.6691 31.4067V31.4067M35.8936 14.8632C36.3037 12.7643 38.2923 11.3593 40.4077 11.6739M35.8936 14.8632V14.8632C36.3037 12.7643 38.2923 11.3593 40.4077 11.6739V11.6739M40.4077 11.6739L61.0559 14.7447M61.0559 14.7447C63.313 15.0803 64.8324 17.2331 64.3925 19.4722M61.0559 14.7447V14.7447C63.313 15.0803 64.8323 17.2331 64.3925 19.4722V19.4722M64.3925 19.4722L54.9783 67.3954M54.9783 67.3954C54.5702 69.4725 52.6145 70.8721 50.5168 70.5882M54.9783 67.3954V67.3954C54.5702 69.4725 52.6145 70.8721 50.5168 70.5882V70.5882" stroke="#000F66" stroke-width="1.4" stroke-linecap="round" stroke-linejoin="round"/>
<path d="M46.7773 16.1562L53.2199 17.0182" stroke="#000F66" stroke-width="1.4" stroke-linecap="round" stroke-linejoin="round"/>
<path d="M67.5091 87.7294L63.1092 71.3087C63.1092 71.3087 60.4764 66.9915 58.1408 64.3577C55.9154 61.8482 55.7514 59.304 55.8115 55.6644C55.8115 55.6644 57.087 44.9699 57.5353 42.7792C57.9835 40.5885 59.2383 39.4758 60.8813 39.8121C62.5243 40.1483 62.9773 41.8386 63.0119 43.8999C63.0466 45.9612 62.8664 56.8799 62.8664 56.8799C64.4648 55.7614 68.3098 51.6943 67.5574 47.3407C66.8049 42.9871 62.5196 36.2673 60.0701 34.853C57.6206 33.4387 58.2284 29.9113 59.4831 28.7986C61.9927 26.5733 68.8613 33.5327 70.0229 35.292C71.9979 34.9354 76.3033 35.1621 77.7249 38.9223C80.4933 37.6629 82.1063 39.8189 83.1069 41.6213C84.4063 41.9633 86.9743 43.6909 86.8504 47.8652C86.6956 53.083 79.7193 63.7522 81.0481 70.643C82.1111 76.1557 83.3028 79.7015 83.7657 80.7853L84.5 84.0005L68.5 91.0005L67.5091 87.7294Z" fill="white"/>
<path d="M67.5091 87.7294L63.1092 71.3087C63.1092 71.3087 60.4764 66.9915 58.1408 64.3577C55.9154 61.8482 55.7514 59.304 55.8115 55.6644C55.8115 55.6644 57.087 44.9699 57.5353 42.7792C57.9835 40.5885 59.2383 39.4758 60.8813 39.8121C62.5243 40.1483 62.9773 41.8386 63.0119 43.8999C63.0466 45.9612 62.8664 56.8799 62.8664 56.8799C64.4648 55.7614 68.3098 51.6943 67.5574 47.3407C66.8049 42.9871 62.5196 36.2673 60.0701 34.853C57.6206 33.4387 58.2284 29.9113 59.4831 28.7986C61.9927 26.5733 68.8613 33.5327 70.0229 35.292M67.5091 87.7294L83.7657 80.7853M67.5091 87.7294L68.5 91.0005L84.5 84.0005L83.7657 80.7853M70.0229 35.292L74.6724 44.9166C75.9403 45.7847 77.8327 48.2109 75.2594 50.971M70.0229 35.292C71.9979 34.9354 76.3033 35.1621 77.7249 38.9223C80.4933 37.6629 82.1063 39.8189 83.1069 41.6213C84.4063 41.9633 86.9743 43.6909 86.8504 47.8652C86.6956 53.083 79.7193 63.7522 81.0481 70.643C82.1111 76.1557 83.3028 79.7015 83.7657 80.7853" stroke="#000F66" stroke-width="1.4" stroke-linecap="round" stroke-linejoin="round"/>
<circle cx="40.555" cy="64.4113" r="1.5" transform="rotate(-15 40.555 64.4113)" stroke="#000F66"/>
<path d="M39.1098 27.2455L39.638 24.5566C39.844 23.5081 40.8378 22.8067 41.8947 22.9639L43.9164 23.2645M52.4143 24.5283L54.6589 24.8622C55.7874 25.03 56.5471 26.1064 56.3272 27.2259L55.8064 29.8772M54.169 38.1937L53.8543 39.7959L53.5928 41.1267C53.3869 42.1752 52.3931 42.8766 51.3361 42.7194L50.347 42.5723L48.9081 42.3583M37.4441 35.7063L37.1294 37.3085L36.9037 38.4574C36.6838 39.5769 37.4435 40.6533 38.572 40.8211L39.1068 40.9007L40.4102 41.0945" stroke="#000F66" stroke-linecap="round" stroke-linejoin="round"/>
<path d="M42 32.5L45 36L51.5 30.5" stroke="#000F66" stroke-width="1.4" stroke-linecap="round" stroke-linejoin="round"/>
</svg>
