<svg width="20" height="20" viewBox="0 0 20 20" fill="none" xmlns="http://www.w3.org/2000/svg">
<path fill-rule="evenodd" clip-rule="evenodd" d="M7.99907 7.11653L10.4407 9.55819L10.4413 9.55879L12.8824 11.9999C13.1447 12.2623 13.4562 12.4705 13.799 12.6125C14.1418 12.7545 14.5093 12.8276 14.8803 12.8276C15.2514 12.8276 15.6188 12.7545 15.9616 12.6125C16.3044 12.4705 16.6159 12.2623 16.8782 11.9999C17.141 11.7376 17.3495 11.4261 17.4919 11.0832C17.6342 10.7403 17.7075 10.3727 17.7077 10.0015C17.7078 9.63019 17.6348 9.26254 17.4928 8.91952C17.3507 8.5765 17.1425 8.26484 16.8799 8.00236C16.6177 7.73952 16.3063 7.53094 15.9634 7.38855C15.6205 7.24615 15.2529 7.17274 14.8817 7.17251C14.5104 7.17228 14.1427 7.24523 13.7997 7.38719C13.4566 7.52916 13.1449 7.73735 12.8824 7.99986L12.1074 8.77486C12.0494 8.83286 11.9805 8.87887 11.9048 8.91026C11.829 8.94165 11.7478 8.9578 11.6657 8.9578C11.5837 8.9578 11.5025 8.94165 11.4267 8.91026C11.3509 8.87887 11.2821 8.83286 11.2241 8.77486C11.1661 8.71686 11.1201 8.648 11.0887 8.57222C11.0573 8.49644 11.0411 8.41522 11.0411 8.33319C11.0411 8.25117 11.0573 8.16995 11.0887 8.09416C11.1201 8.01838 11.1661 7.94953 11.2241 7.89153L11.9991 7.11653C12.3774 6.73809 12.8266 6.43789 13.321 6.23308C13.8153 6.02827 14.3452 5.92285 14.8803 5.92285C15.4154 5.92285 15.9453 6.02827 16.4397 6.23308C16.9341 6.43789 17.3832 6.73809 17.7616 7.11653L17.7641 7.11819C18.528 7.88264 18.9571 8.91914 18.9571 9.99986C18.9571 11.0806 18.528 12.1171 17.7641 12.8815L17.7616 12.8832C17.3832 13.2616 16.9341 13.5618 16.4397 13.7666C15.9453 13.9714 15.4154 14.0769 14.8803 14.0769C14.3452 14.0769 13.8153 13.9714 13.321 13.7666C12.8266 13.5618 12.3774 13.2616 11.9991 12.8832L9.55741 10.4415L9.55682 10.4409L7.11574 7.99986C6.8534 7.73743 6.54193 7.52926 6.19913 7.38723C5.85632 7.2452 5.48889 7.1721 5.11782 7.1721C4.74676 7.1721 4.37933 7.2452 4.03652 7.38723C3.69371 7.52926 3.38224 7.73743 3.11991 7.99986C2.85712 8.26212 2.6486 8.5736 2.50628 8.91651C2.36396 9.25941 2.29063 9.627 2.29047 9.99826C2.29032 10.3695 2.36335 10.7372 2.50538 11.0802C2.64742 11.4232 2.85567 11.7349 3.11824 11.9974L3.11991 11.9999C3.38224 12.2623 3.69371 12.4705 4.03652 12.6125C4.37933 12.7545 4.74676 12.8276 5.11782 12.8276C5.48889 12.8276 5.85632 12.7545 6.19913 12.6125C6.54193 12.4705 6.8534 12.2623 7.11574 11.9999L7.89074 11.2249C7.94874 11.1669 8.0176 11.1208 8.09338 11.0895C8.16916 11.0581 8.25038 11.0419 8.33241 11.0419C8.41443 11.0419 8.49565 11.0581 8.57143 11.0895C8.64722 11.1208 8.71607 11.1669 8.77407 11.2249C8.83207 11.2829 8.87808 11.3517 8.90947 11.4275C8.94086 11.5033 8.95702 11.5845 8.95702 11.6665C8.95702 11.7485 8.94086 11.8298 8.90947 11.9056C8.87808 11.9813 8.83207 12.0502 8.77407 12.1082L7.99907 12.8832C7.62074 13.2616 7.17156 13.5618 6.67719 13.7666C6.18282 13.9714 5.65294 14.0769 5.11782 14.0769C4.58271 14.0769 4.05283 13.9714 3.55846 13.7666C3.06409 13.5618 2.61491 13.2616 2.23657 12.8832L2.23407 12.8815C1.47014 12.1171 1.04102 11.0806 1.04102 9.99986C1.04102 8.91914 1.47014 7.88264 2.23407 7.11819L2.23657 7.11653C2.61491 6.73809 3.06409 6.43789 3.55846 6.23308C4.05283 6.02827 4.58271 5.92285 5.11782 5.92285C5.65294 5.92285 6.18282 6.02827 6.67719 6.23308C7.17156 6.43789 7.62074 6.73809 7.99907 7.11653Z" fill="#4D596A"/>
</svg>
