<svg width="22" height="22" viewBox="0 0 22 22" fill="none" xmlns="http://www.w3.org/2000/svg">
<path fill-rule="evenodd" clip-rule="evenodd" d="M12.2869 5.94969C12.1652 6.23481 11.9523 6.47147 11.6816 6.62253C12.4217 8.56944 13.1963 9.52796 13.8777 9.6045C14.6523 9.69036 15.3589 9.33663 16.0523 8.46398C16.0895 8.41708 16.1321 8.37478 16.1792 8.33798C15.9905 8.08549 15.8926 7.77671 15.9012 7.46161C15.9098 7.14652 16.0245 6.84355 16.2267 6.60174C16.4289 6.35994 16.7068 6.19345 17.0154 6.12923C17.324 6.06501 17.6453 6.10682 17.9271 6.24788C18.209 6.38894 18.4351 6.621 18.5687 6.9065C18.7023 7.19201 18.7356 7.51424 18.6633 7.82105C18.591 8.12785 18.4172 8.40128 18.1702 8.59706C17.9231 8.79284 17.6172 8.89952 17.302 8.89984C17.301 8.95713 17.2935 9.01411 17.2796 9.0697L16.1447 13.6094C16.0311 14.0637 15.7688 14.467 15.3997 14.7552C15.0305 15.0433 14.5756 15.1998 14.1073 15.1998H7.8932C7.42488 15.1998 6.96998 15.0433 6.60082 14.7552C6.23165 14.467 5.9694 14.0637 5.85575 13.6094L4.72083 9.0697C4.70683 9.01184 4.69843 8.95397 4.69843 8.89984C4.38326 8.89931 4.07748 8.79245 3.83059 8.59655C3.58369 8.40065 3.41012 8.12717 3.33797 7.82037C3.26581 7.51357 3.29929 7.19139 3.43299 6.90598C3.56668 6.62057 3.79277 6.38862 4.07467 6.24767C4.35658 6.10672 4.67779 6.06501 4.98634 6.1293C5.29488 6.19359 5.57271 6.36011 5.77486 6.60192C5.97701 6.84373 6.09165 7.14667 6.10023 7.46173C6.10882 7.77679 6.01084 8.08552 5.82215 8.33798C5.87295 8.37773 5.91844 8.42384 5.95749 8.47518C6.61735 9.34317 7.31827 9.69316 8.1228 9.6045C8.83679 9.52516 9.60772 8.57037 10.3189 6.62346C10.048 6.47277 9.83472 6.23641 9.7126 5.95145C9.59048 5.6665 9.5664 5.34906 9.64414 5.04895C9.72187 4.74883 9.89703 4.483 10.1421 4.29316C10.3872 4.10333 10.6884 4.00021 10.9984 4C11.3085 3.99979 11.6098 4.10249 11.8551 4.29199C12.1005 4.48149 12.276 4.74708 12.3542 5.04709C12.4323 5.3471 12.4087 5.66456 12.2869 5.94969ZM6.80095 16.6H15.2009C15.3865 16.6 15.5646 16.6738 15.6958 16.805C15.8271 16.9363 15.9009 17.1144 15.9009 17.3C15.9009 17.4857 15.8271 17.6637 15.6958 17.795C15.5646 17.9262 15.3865 18 15.2009 18H6.80095C6.6153 18 6.43725 17.9262 6.30598 17.795C6.1747 17.6637 6.10096 17.4857 6.10096 17.3C6.10096 17.1144 6.1747 16.9363 6.30598 16.805C6.43725 16.6738 6.6153 16.6 6.80095 16.6Z" fill="#0051FF"/>
</svg>
