<svg width="44" height="26" viewBox="0 0 44 26" fill="none" xmlns="http://www.w3.org/2000/svg">
<g clip-path="url(#clip0_16204_70998)">
<rect width="24.4501" height="24.4501" rx="2" transform="matrix(0.95882 0.284015 -0.707107 0.707107 18.9102 0.786133)" fill="white"/>
<path d="M12.8042 11.5254L17.9812 13.0589C18.1666 13.1138 18.2062 13.2697 18.0695 13.4063L14.2515 17.2243C14.1148 17.361 13.8528 17.4275 13.6675 17.3726L8.49041 15.8391C8.30507 15.7842 8.26548 15.6283 8.40216 15.4917L12.2201 11.6737C12.3568 11.537 12.6188 11.4705 12.8042 11.5254ZM24.2789 19.8741L23.7838 20.3692L23.1124 20.1704L23.6075 19.6752L24.2789 19.8741ZM19.1009 18.3403L18.6058 18.8354L17.9344 18.6366L18.4295 18.1415L19.1009 18.3403ZM23.5992 17.1979L23.1041 17.693L22.4327 17.4941L22.9278 16.999L23.5992 17.1979ZM28.0975 16.0555L27.6024 16.5506L26.9311 16.3517L27.4262 15.8566L28.0975 16.0555ZM22.9195 14.5217L22.4244 15.0168L21.7531 14.8179L22.2482 14.3228L22.9195 14.5217ZM20.0168 4.31273L25.1939 5.84625C25.3792 5.90115 25.4188 6.05704 25.2821 6.19372L21.4642 10.0117C21.3275 10.1484 21.0654 10.2149 20.8801 10.16L15.703 8.6265C15.5177 8.5716 15.4781 8.41571 15.6148 8.27902L19.4328 4.46106L19.49 4.41356C19.6136 4.32462 19.7928 4.2791 19.9439 4.29829L20.0168 4.31273ZM29.797 7.20974L34.974 8.74326C35.1594 8.79816 35.1989 8.95405 35.0623 9.09073L31.2443 12.9087C31.1076 13.0454 30.8456 13.1119 30.6603 13.057L25.4832 11.5235C25.2978 11.4686 25.2583 11.3127 25.3949 11.176L29.2129 7.35807C29.3496 7.22139 29.6116 7.15484 29.797 7.20974Z" stroke="#000F66" stroke-width="1.7"/>
</g>
<rect x="-0.176199" y="-0.693785" width="25.8501" height="25.8501" rx="2.7" transform="matrix(0.95882 0.284015 -0.707107 0.707107 18.4123 0.632971)" stroke="#000F66" stroke-width="1.4"/>
<defs>
<clipPath id="clip0_16204_70998">
<rect width="24.4501" height="24.4501" rx="2" transform="matrix(0.95882 0.284015 -0.707107 0.707107 18.9102 0.786133)" fill="white"/>
</clipPath>
</defs>
</svg>
