<svg width="22" height="22" viewBox="0 0 22 22" fill="none" xmlns="http://www.w3.org/2000/svg">
<path d="M16.0447 3.17179L18.2768 3.88233C18.9304 4.09101 19.4367 4.62522 19.6243 5.30446L21.0514 10.4702C21.0891 10.6061 21.0996 10.7484 21.0825 10.8886C21.0653 11.0287 21.0208 11.1638 20.9517 11.2857C20.8826 11.4076 20.7903 11.5136 20.6803 11.5975C20.5704 11.6813 20.4451 11.7412 20.3121 11.7734L17.0574 12.5664M16.0447 3.17179L15.3549 5.31281C15.313 5.44286 15.2468 5.56311 15.1601 5.66669C15.0733 5.77027 14.9677 5.85515 14.8492 5.91648C14.7307 5.97782 14.6017 6.0144 14.4695 6.02414C14.3374 6.03389 14.2047 6.0166 14.079 5.97327L11.6725 5.14378M16.0447 3.17179L14.6176 1.69541C14.2394 1.30403 13.7264 1.0841 13.1914 1.08398H8.80904C8.27347 1.08398 7.76009 1.30414 7.38187 1.69541L5.95469 3.17179M10.327 5.14378L7.92147 5.97327C7.79571 6.01676 7.6629 6.03417 7.53063 6.0245C7.39836 6.01484 7.26923 5.97829 7.15064 5.91694C7.03204 5.8556 6.92629 5.77066 6.83946 5.667C6.75262 5.56334 6.6864 5.44298 6.64458 5.31281L5.95469 3.17179M5.95469 3.17179L3.72266 3.88233C3.07009 4.09101 2.56277 4.62522 2.37517 5.30446L0.949003 10.4702C0.911074 10.606 0.900253 10.7483 0.9172 10.8885C0.934147 11.0288 0.978506 11.164 1.04758 11.2859C1.11665 11.4078 1.20899 11.5139 1.31897 11.5977C1.42895 11.6815 1.55427 11.7413 1.6873 11.7734L4.94206 12.5664M10.9997 6.30298V7.3474" stroke="#0051FF" stroke-width="1.5" stroke-linecap="round" stroke-linejoin="round"/>
<path d="M17.0412 10.4786V18.352C17.0513 19.29 16.4482 20.1153 15.5747 20.3626C12.558 21.1013 9.41621 21.1013 6.39947 20.3626C5.97443 20.2425 5.59988 19.98 5.3345 19.6162C5.06912 19.2524 4.9279 18.8077 4.93296 18.352V10.4786M8.05257 1.2207L10.9997 6.30301L13.9468 1.2207" stroke="#0051FF" stroke-width="1.5" stroke-linecap="round" stroke-linejoin="round"/>
</svg>
