<svg width="70" height="76" viewBox="0 0 70 76" fill="none" xmlns="http://www.w3.org/2000/svg">
<path d="M46.2266 74.6553L46.2705 74.6338L56.1641 67.79C56.8275 67.3311 57.6876 67.2823 58.3945 67.6523L58.5332 67.7324L68.3779 73.8516C68.4144 73.8742 68.4412 73.8783 68.4619 73.8779C68.4865 73.8775 68.5159 73.8702 68.5449 73.8525C68.5741 73.8348 68.5948 73.8118 68.6064 73.79C68.6113 73.7809 68.6162 73.77 68.6191 73.7559L68.6221 73.7031L62.9561 1.91309H7.04297L1.37695 73.7031C1.3736 73.7456 1.38189 73.7718 1.3916 73.79C1.40327 73.8118 1.424 73.8348 1.45312 73.8525C1.48211 73.8702 1.51155 73.8775 1.53613 73.8779C1.54636 73.8781 1.55857 73.8777 1.57227 73.874L1.62109 73.8516L11.4648 67.7324C12.1501 67.3064 13.0111 67.2997 13.6992 67.7041L13.834 67.79L23.7285 74.6338C23.7696 74.6622 23.8202 74.6695 23.8662 74.6553L23.9102 74.6338L33.7705 67.8135C34.4637 67.3341 35.3675 67.3041 36.0869 67.7236L36.2275 67.8135L46.0879 74.6338C46.129 74.6622 46.1805 74.6696 46.2266 74.6553Z" fill="white" stroke="#000F66" stroke-width="2"/>
</svg>
