<svg width="24" height="24" viewBox="0 0 24 24" fill="none" xmlns="http://www.w3.org/2000/svg">
<path d="M17.8572 6.84956C17.7357 6.78677 17.6175 6.71794 17.5028 6.64332C17.1696 6.423 16.864 6.1634 16.5928 5.87011C15.9141 5.09352 15.6606 4.30568 15.5672 3.75409H15.5709C15.4929 3.29624 15.5252 3 15.5301 3H12.4387V14.9537C12.4387 15.1141 12.4387 15.2728 12.432 15.4295C12.432 15.449 12.4301 15.467 12.429 15.488C12.429 15.4966 12.429 15.5056 12.4271 15.5146C12.4271 15.5169 12.4271 15.5191 12.4271 15.5214C12.3945 15.9503 12.257 16.3646 12.0267 16.7279C11.7964 17.0912 11.4804 17.3923 11.1064 17.6048C10.7166 17.8265 10.2758 17.9428 9.82736 17.9423C8.38705 17.9423 7.21973 16.7678 7.21973 15.3174C7.21973 13.867 8.38705 12.6925 9.82736 12.6925C10.1 12.6923 10.371 12.7352 10.6302 12.8196L10.6339 9.67204C9.84699 9.57039 9.04751 9.63293 8.28595 9.85572C7.52438 10.0785 6.81725 10.4567 6.20916 10.9665C5.67634 11.4294 5.22839 11.9818 4.88548 12.5988C4.75498 12.8238 4.26263 13.7278 4.20301 15.1951C4.16551 16.028 4.41562 16.8908 4.53487 17.2474V17.2549C4.60987 17.4649 4.90048 18.1815 5.37408 18.7856C5.75597 19.2702 6.20717 19.6958 6.71314 20.0489V20.0414L6.72063 20.0489C8.21719 21.0658 9.87648 20.9991 9.87648 20.9991C10.1637 20.9875 11.1259 20.9991 12.2186 20.4813C13.4306 19.9072 14.1205 19.0518 14.1205 19.0518C14.5613 18.5408 14.9118 17.9583 15.157 17.3295C15.4367 16.5942 15.5301 15.7122 15.5301 15.3598V9.01807C15.5676 9.04057 16.067 9.37093 16.067 9.37093C16.067 9.37093 16.7866 9.83216 17.9093 10.1325C18.7148 10.3463 19.8 10.3913 19.8 10.3913V7.32241C19.4198 7.36366 18.6477 7.24366 17.8572 6.84956Z" fill="#333B48"/>
</svg>
