<svg xmlns="http://www.w3.org/2000/svg" width="76" height="32" viewBox="0 0 76 32" fill="none">
  <path d="M69.8139 28.2217C68.3407 28.2217 67.2296 27.7252 67.2296 26.8209V5.26449C67.2296 4.31451 68.091 3.83952 69.8139 3.83952H70.882C72.4051 3.83952 73.4421 4.28714 73.4421 5.26449V26.8209C73.4421 27.7548 72.5887 28.2217 70.882 28.2217H69.8139Z" fill="#0051FF"/>
  <path d="M29.413 28.2217C27.9399 28.2217 26.8288 27.7252 26.8288 26.8209V5.24034C26.8288 4.29036 27.6902 3.81539 29.413 3.81539H30.4992C32.0222 3.81539 33.0593 4.26301 33.0593 5.24036V26.8209C33.0593 27.7548 32.2059 28.2217 30.4992 28.2217H29.413Z" fill="#0051FF"/>
  <path d="M17.6206 5.36587C18.5681 3.83941 18.5748 3.83952 20.5289 3.83952L21.1709 3.83952C23.34 3.81539 24.0495 4.86055 23.4895 5.77168L15.2681 18.8746V26.8209C15.2681 27.7547 14.6019 28.2217 12.8952 28.2217H12.4033C10.9302 28.2217 10.0414 27.7252 10.0414 26.8208V18.8746L1.81999 5.77169C1.26002 4.86055 1.96945 3.81539 4.13859 3.83952L4.78063 3.83952C6.73465 3.83952 6.74143 3.83941 7.68893 5.36587L12.6553 13.8626L17.6206 5.36587Z" fill="#0051FF"/>
  <path d="M36.9201 26.8209V6.43603C36.9201 5.38785 37.7411 4.91642 39.1238 4.49841C40.5065 4.08041 44.8481 2.48798 49.5544 6.02C54.0143 2.5865 63.7451 3.37471 63.7451 12.7347V26.8209C63.7451 27.7548 62.8918 28.2217 61.185 28.2217H60.95C59.4769 28.2217 58.3658 27.7252 58.3658 26.8209V14.6812C58.3658 12.0437 55.8732 10.5067 53.7756 11.029C53.2851 11.2036 53.0755 11.4058 53.0755 12.0593V26.8209C53.0755 27.7548 52.2221 28.2217 50.5154 28.2217H50.2511C48.778 28.2217 47.6669 27.7252 47.6669 26.8209V14.6812C47.6669 12.0437 45.1742 10.5067 43.0767 11.029C42.5861 11.2036 42.3766 11.4058 42.3766 12.0593V26.8209C42.3766 27.7548 41.5232 28.2217 39.8164 28.2217H39.5043C38.0312 28.2217 36.9201 27.7252 36.9201 26.8209Z" fill="#0051FF"/>
</svg>