<svg width="24" height="24" viewBox="0 0 24 24" fill="none" xmlns="http://www.w3.org/2000/svg">
<path d="M12.005 19.012H11.985C11.923 19.012 5.72003 19 4.15503 18.575C3.29445 18.3432 2.62238 17.6707 2.39103 16.81C2.10961 15.2224 1.97371 13.6123 1.98503 12C1.97776 10.385 2.11733 8.77271 2.40203 7.183C2.63974 6.32151 3.30886 5.64595 4.16803 5.4C5.69003 5 11.722 5 11.978 5H11.999C12.062 5 18.281 5.012 19.83 5.437C20.6888 5.67001 21.3595 6.3411 21.592 7.2C21.8824 8.79354 22.0187 10.4113 21.999 12.031C22.006 13.644 21.8661 15.2543 21.581 16.842C21.3467 17.7016 20.6742 18.3726 19.814 18.605C18.294 19.008 12.261 19.012 12.005 19.012ZM10.005 9.005L10 15.005L15.212 12.005L10.005 9.005Z" fill="#CC0000"/>
</svg>
